<?xml version="1.0" encoding="UTF-8" standalone="no"?>
<svg
   xmlns:dc="http://purl.org/dc/elements/1.1/"
   xmlns:cc="http://creativecommons.org/ns#"
   xmlns:rdf="http://www.w3.org/1999/02/22-rdf-syntax-ns#"
   xmlns:svg="http://www.w3.org/2000/svg"
   xmlns="http://www.w3.org/2000/svg"
   xmlns:sodipodi="http://sodipodi.sourceforge.net/DTD/sodipodi-0.dtd"
   xmlns:inkscape="http://www.inkscape.org/namespaces/inkscape"
   viewBox="0 0 405.16955 91.473594"
   height="91.473595"
   width="405.16956"
   xml:space="preserve"
   id="svg2"
   version="1.1"
   sodipodi:docname="i-sense flu.svg"
   inkscape:version="0.92.2 (5c3e80d, 2017-08-06)"><sodipodi:namedview
     pagecolor="#ffffff"
     bordercolor="#666666"
     borderopacity="1"
     objecttolerance="10"
     gridtolerance="10"
     guidetolerance="10"
     inkscape:pageopacity="0"
     inkscape:pageshadow="2"
     inkscape:window-width="510"
     inkscape:window-height="437"
     id="namedview44"
     showgrid="false"
     inkscape:zoom="0.27794605"
     inkscape:cx="206.28586"
     inkscape:cy="45.804661"
     inkscape:window-x="0"
     inkscape:window-y="28"
     inkscape:window-maximized="0"
     inkscape:current-layer="svg2" /><metadata
     id="metadata8"><rdf:RDF><cc:Work
         rdf:about=""><dc:format>image/svg+xml</dc:format><dc:type
           rdf:resource="http://purl.org/dc/dcmitype/StillImage" /></cc:Work></rdf:RDF></metadata><defs
     id="defs6"><clipPath
       id="clipPath18"
       clipPathUnits="userSpaceOnUse"><path
         id="path16"
         d="M 0,595.276 H 841.89 V 0 H 0 Z"
         inkscape:connector-curvature="0" /></clipPath></defs><g
     transform="matrix(1.3333333,0,0,-1.3333333,-354.97415,442.51959)"
     id="g10"><g
       id="g12"><g
         clip-path="url(#clipPath18)"
         id="g14"><g
           transform="translate(295.7065,264.7997)"
           id="g20"><path
             id="path22"
             style="fill:#3babe2;fill-opacity:1;fill-rule:nonzero;stroke:none"
             d="m 0,0 v 34.152 c 0,0.503 0.431,0.935 0.937,0.935 h 4.612 c 0.5,0 0.934,-0.432 0.934,-0.935 L 6.483,0 c 0,-0.507 -0.434,-0.939 -0.934,-0.939 H 0.937 C 0.431,-0.939 0,-0.507 0,0"
             inkscape:connector-curvature="0" /></g><g
           transform="translate(307.957,281.0106)"
           id="g24"><path
             id="path26"
             style="fill:#3babe2;fill-opacity:1;fill-rule:nonzero;stroke:none"
             d="M 0,0 V 4.105 C 0,4.61 0.431,5.043 0.937,5.043 h 14.697 c 0.504,0 0.935,-0.433 0.935,-0.938 V 0 c 0,-0.507 -0.431,-0.939 -0.935,-0.939 H 0.937 C 0.431,-0.939 0,-0.507 0,0"
             inkscape:connector-curvature="0" /></g><g
           transform="translate(338.5073,278.8475)"
           id="g28"><path
             id="path30"
             style="fill:#3babe2;fill-opacity:1;fill-rule:nonzero;stroke:none"
             d="m 0,0 -2.234,1.299 c -5.908,3.313 -7.422,5.403 -7.422,10.014 0,6.414 4.54,10.306 11.888,10.306 4.682,0 9.009,-1.589 9.009,-3.317 v -3.314 c 0,-0.58 -0.218,-0.865 -0.649,-0.865 -0.361,0 -0.577,0.071 -1.225,0.432 l -0.505,0.286 c -2.379,1.442 -4.321,2.019 -6.775,2.019 -3.382,0 -5.259,-1.586 -5.259,-4.394 0,-2.305 0.793,-3.172 4.901,-5.547 L 4.468,5.334 c 5.617,-3.241 7.491,-5.838 7.491,-10.449 0,-6.34 -4.829,-10.448 -12.25,-10.448 -5.26,0 -10.087,1.587 -10.087,3.386 v 3.172 c 0,0.647 0.218,0.937 0.722,0.937 0.363,0 0.504,-0.072 1.008,-0.29 l 0.794,-0.504 c 2.018,-1.152 4.97,-1.946 7.203,-1.946 3.82,0 6.125,1.803 6.125,4.827 0,2.02 -1.08,3.677 -3.313,4.828 z"
             inkscape:connector-curvature="0" /></g><g
           transform="translate(379.6489,286.0536)"
           id="g32"><path
             id="path34"
             style="fill:#3babe2;fill-opacity:1;fill-rule:nonzero;stroke:none"
             d="m 0,0 v 0.863 c 0,5.26 -3.748,8.791 -9.22,8.791 -5.55,0 -9.512,-3.965 -9.512,-9.654 z m -18.808,-4.756 v -0.432 c 0,-7.781 4.76,-12.826 11.961,-12.826 2.597,0 6.058,1.079 8.865,2.74 l 0.578,0.286 c 0.359,0.217 0.646,0.29 0.864,0.29 0.504,0 0.864,-0.434 0.864,-1.083 v -2.808 c 0,-2.162 -5.763,-4.18 -12.248,-4.18 -10.593,0 -17.295,6.988 -17.295,18.228 0,11.676 6.271,18.954 16.283,18.954 9.3,0 15.42,-6.487 15.42,-16.289 v -1.942 c 0,-0.508 -0.43,-0.938 -0.933,-0.938 z"
             inkscape:connector-curvature="0" /></g><g
           transform="translate(397.6665,298.0848)"
           id="g36"><path
             id="path38"
             style="fill:#3babe2;fill-opacity:1;fill-rule:nonzero;stroke:none"
             d="m 0,0 h 0.719 c 0.648,0 1.081,0.145 2.16,0.576 3.46,1.37 5.335,1.803 8.215,1.803 7.851,0 12.68,-4.61 12.68,-12.249 v -23.415 c 0,-0.509 -0.43,-0.94 -0.935,-0.94 h -4.611 c -0.506,0 -0.94,0.431 -0.94,0.94 v 22.409 c 0,5.689 -2.736,8.499 -8.357,8.499 -5.257,0 -8.212,-1.728 -8.212,-4.757 v -26.151 c 0,-0.509 -0.432,-0.94 -0.936,-0.94 h -4.614 c -0.502,0 -0.935,0.431 -0.935,0.94 V 0.867 c 0,0.503 0.433,0.935 0.935,0.935 h 3.532 C -0.217,1.802 0,1.587 0,0.646 Z"
             inkscape:connector-curvature="0" /></g><g
           transform="translate(437.582,278.8475)"
           id="g40"><path
             id="path42"
             style="fill:#3babe2;fill-opacity:1;fill-rule:nonzero;stroke:none"
             d="m 0,0 -2.231,1.299 c -5.911,3.313 -7.42,5.403 -7.42,10.014 0,6.414 4.54,10.306 11.885,10.306 4.687,0 9.006,-1.589 9.006,-3.317 v -3.314 c 0,-0.58 -0.216,-0.865 -0.647,-0.865 -0.36,0 -0.577,0.071 -1.223,0.432 l -0.508,0.286 c -2.374,1.442 -4.32,2.019 -6.768,2.019 -3.389,0 -5.261,-1.586 -5.261,-4.394 0,-2.305 0.791,-3.172 4.896,-5.547 L 4.471,5.334 c 5.62,-3.241 7.493,-5.838 7.493,-10.449 0,-6.34 -4.828,-10.448 -12.248,-10.448 -5.262,0 -10.091,1.587 -10.091,3.386 v 3.172 c 0,0.647 0.218,0.937 0.724,0.937 0.358,0 0.504,-0.072 1.006,-0.29 l 0.794,-0.504 c 2.013,-1.152 4.97,-1.946 7.208,-1.946 3.814,0 6.122,1.803 6.122,4.827 0,2.02 -1.079,3.677 -3.318,4.828 z"
             inkscape:connector-curvature="0" /></g><g
           transform="translate(478.7266,286.0536)"
           id="g44"><path
             id="path46"
             style="fill:#3babe2;fill-opacity:1;fill-rule:nonzero;stroke:none"
             d="m 0,0 v 0.863 c 0,5.26 -3.745,8.791 -9.224,8.791 -5.547,0 -9.508,-3.965 -9.508,-9.654 z m -18.805,-4.756 v -0.432 c 0,-7.781 4.755,-12.826 11.963,-12.826 2.59,0 6.048,1.079 8.863,2.74 l 0.572,0.286 c 0.36,0.217 0.65,0.29 0.867,0.29 0.502,0 0.863,-0.434 0.863,-1.083 v -2.808 c 0,-2.162 -5.764,-4.18 -12.251,-4.18 -10.588,0 -17.289,6.988 -17.289,18.228 0,11.676 6.267,18.954 16.281,18.954 9.296,0 15.42,-6.487 15.42,-16.289 v -1.942 c 0,-0.508 -0.43,-0.938 -0.935,-0.938 z"
             inkscape:connector-curvature="0" /></g><g
           transform="translate(282.3403,325.3348)"
           id="g48"><path
             id="path50"
             style="fill:#3babe2;fill-opacity:1;fill-rule:nonzero;stroke:none"
             d="m 0,0 c -0.256,0.273 -0.605,0.422 -0.979,0.422 -0.349,0 -0.681,-0.132 -0.937,-0.371 -7.385,-7.018 -7.688,-18.736 -0.669,-26.124 0.258,-0.274 0.606,-0.424 0.982,-0.424 0.35,0 0.679,0.133 0.931,0.375 0.541,0.514 0.567,1.373 0.05,1.915 -5.985,6.305 -5.729,16.303 0.576,22.292 0.264,0.249 0.414,0.585 0.419,0.943 C 0.385,-0.604 0.252,-0.263 0,0"
             inkscape:connector-curvature="0" /></g><g
           transform="translate(276.52,331.4667)"
           id="g52"><path
             id="path54"
             style="fill:#3babe2;fill-opacity:1;fill-rule:nonzero;stroke:none"
             d="m 0,0 c -0.258,0.271 -0.609,0.423 -0.98,0.423 -0.352,0 -0.683,-0.132 -0.933,-0.374 -10.77,-10.226 -11.214,-27.306 -0.986,-38.075 0.258,-0.276 0.609,-0.423 0.986,-0.423 0.346,0 0.679,0.132 0.93,0.371 0.266,0.253 0.413,0.584 0.424,0.944 0.01,0.363 -0.122,0.709 -0.372,0.973 -9.198,9.685 -8.799,25.047 0.882,34.244 0.264,0.252 0.414,0.586 0.42,0.942 C 0.383,-0.608 0.252,-0.267 0,0"
             inkscape:connector-curvature="0" /></g><g
           transform="translate(287.5991,306.7147)"
           id="g56"><path
             id="path58"
             style="fill:#3babe2;fill-opacity:1;fill-rule:nonzero;stroke:none"
             d="m 0,0 c -2.905,3.062 -2.78,7.921 0.281,10.827 0.261,0.244 0.413,0.585 0.422,0.95 0.007,0.358 -0.125,0.702 -0.373,0.963 -0.26,0.273 -0.607,0.422 -0.983,0.422 -0.349,0 -0.679,-0.131 -0.929,-0.371 -2.008,-1.907 -3.153,-4.479 -3.225,-7.252 -0.071,-2.771 0.936,-5.401 2.841,-7.405 0.258,-0.275 0.609,-0.427 0.984,-0.427 0.349,0 0.68,0.134 0.932,0.376 0.265,0.248 0.413,0.586 0.425,0.947 C 0.382,-0.608 0.252,-0.262 0,0"
             inkscape:connector-curvature="0" /></g><g
           transform="translate(316.7236,325.3856)"
           id="g60"><path
             id="path62"
             style="fill:#3babe2;fill-opacity:1;fill-rule:nonzero;stroke:none"
             d="m 0,0 c -0.253,0.239 -0.588,0.371 -0.937,0.371 -0.375,0 -0.722,-0.148 -0.979,-0.419 -0.253,-0.264 -0.382,-0.606 -0.375,-0.972 0.009,-0.361 0.158,-0.697 0.419,-0.947 6.302,-5.986 6.562,-15.985 0.577,-22.291 -0.252,-0.261 -0.383,-0.604 -0.373,-0.968 0.009,-0.362 0.16,-0.697 0.422,-0.947 0.253,-0.242 0.584,-0.375 0.933,-0.375 0.375,0 0.724,0.151 0.986,0.426 C 7.686,-18.734 7.385,-7.018 0,0"
             inkscape:connector-curvature="0" /></g><g
           transform="translate(322.5459,331.5155)"
           id="g64"><path
             id="path66"
             style="fill:#3babe2;fill-opacity:1;fill-rule:nonzero;stroke:none"
             d="M 0,0 C -0.255,0.239 -0.586,0.374 -0.937,0.374 -1.312,0.371 -1.659,0.223 -1.917,-0.049 -2.168,-0.311 -2.301,-0.654 -2.29,-1.02 c 0.007,-0.36 0.156,-0.696 0.418,-0.946 9.684,-9.197 10.081,-24.558 0.885,-34.244 -0.514,-0.539 -0.493,-1.401 0.047,-1.913 0.255,-0.243 0.586,-0.375 0.934,-0.375 0.376,0 0.729,0.147 0.987,0.423 C 11.207,-27.308 10.765,-10.228 0,0"
             inkscape:connector-curvature="0" /></g><g
           transform="translate(311.1357,319.5048)"
           id="g68"><path
             id="path70"
             style="fill:#3babe2;fill-opacity:1;fill-rule:nonzero;stroke:none"
             d="m 0,0 c -0.252,0.241 -0.584,0.372 -0.935,0.372 -0.374,0 -0.725,-0.149 -0.981,-0.421 -0.249,-0.262 -0.379,-0.606 -0.372,-0.97 0.007,-0.359 0.159,-0.698 0.422,-0.944 3.059,-2.91 3.182,-7.766 0.279,-10.827 -0.247,-0.262 -0.381,-0.608 -0.374,-0.97 0.008,-0.361 0.157,-0.699 0.42,-0.947 0.254,-0.242 0.586,-0.376 0.934,-0.376 0.379,0 0.726,0.152 0.982,0.425 C 4.315,-10.513 4.146,-3.938 0,0"
             inkscape:connector-curvature="0" /></g><g
           transform="translate(306.0117,308.5897)"
           id="g72"><path
             id="path74"
             style="fill:#0a5490;fill-opacity:1;fill-rule:nonzero;stroke:none"
             d="M 0,0 C -0.358,0.358 -0.946,0.424 -1.447,0.263 L -3.238,1.52 c 0.442,0.728 0.717,1.54 0.8,2.358 l 2.417,0.011 C 0.063,3.612 0.202,3.354 0.405,3.147 0.976,2.58 2.157,2.58 2.702,3.122 3.245,3.664 3.296,4.791 2.759,5.442 1.979,6.393 0.568,6.192 0.121,5.36 0.071,5.269 0.032,5.166 -0.002,5.062 L -2.456,5.054 c -0.117,0.803 -0.44,1.583 -1.01,2.271 l 1.152,1.058 c 0.591,-0.351 1.388,-0.365 1.831,0.083 0.542,0.531 0.365,1.52 -0.218,2.104 -0.58,0.576 -1.486,0.615 -2.024,0.08 C -3.074,10.297 -3.181,9.787 -3.041,9.31 L -4.315,8.137 C -4.858,8.539 -5.502,8.822 -6.18,8.991 l 0.369,2.97 c 0.267,0.075 0.507,0.204 0.681,0.378 0.533,0.531 0.403,1.573 -0.126,2.106 -0.534,0.529 -1.779,0.415 -2.31,-0.116 -0.527,-0.528 -0.305,-1.571 0.223,-2.102 0.099,-0.098 0.221,-0.175 0.355,-0.229 L -7.346,9.156 C -8.137,9.19 -8.938,9.067 -9.661,8.792 l -1.285,1.569 c 0.194,0.52 0.124,1.194 -0.236,1.63 -0.715,0.866 -1.992,0.685 -2.4,-0.075 -0.33,-0.615 -0.261,-1.49 0.26,-2.01 0.358,-0.358 0.99,-0.47 1.509,-0.334 l 1.097,-1.346 c -0.177,-0.127 -0.345,-0.271 -0.503,-0.427 -0.548,-0.551 -0.907,-1.233 -1.09,-1.964 l -2.054,0.123 c -0.085,0.359 -0.27,0.693 -0.559,0.901 -0.614,0.437 -1.653,0.007 -2.186,-0.521 -0.529,-0.532 -0.309,-1.572 0.223,-2.106 0.528,-0.528 1.68,-0.419 2.214,0.114 0.109,0.111 0.199,0.261 0.258,0.437 l 1.956,-0.115 c -0.005,-0.623 0.099,-1.25 0.315,-1.842 l -1.131,-0.673 c -0.009,0.011 -0.022,0.022 -0.033,0.038 -0.532,0.53 -1.773,0.415 -2.306,-0.116 -0.533,-0.529 -0.309,-1.57 0.219,-2.103 0.532,-0.531 1.684,-0.419 2.215,0.11 0.244,0.245 0.348,0.602 0.341,0.96 l 1.209,0.723 c 0.187,-0.313 0.42,-0.601 0.678,-0.859 0.314,-0.316 0.668,-0.592 1.044,-0.831 l -1.61,-2.964 c -0.503,0.007 -1.03,-0.157 -1.33,-0.462 -0.528,-0.527 -0.309,-1.569 0.224,-2.098 0.528,-0.533 1.681,-0.422 2.211,0.109 0.493,0.494 0.413,1.429 -0.022,1.983 l 1.579,2.91 c 0.532,-0.2 1.087,-0.32 1.643,-0.347 l 0.427,-1.332 c -0.052,-0.034 -0.102,-0.075 -0.142,-0.12 -0.531,-0.531 -0.311,-1.57 0.221,-2.102 0.533,-0.533 1.68,-0.423 2.212,0.112 0.532,0.528 0.402,1.574 -0.128,2.103 -0.242,0.242 -0.634,0.35 -1.039,0.343 l -0.361,1.111 c 0.653,0.153 1.259,0.461 1.778,0.951 0.105,0.103 0.203,0.203 0.301,0.312 L -2.36,-0.535 C -2.587,-1.083 -2.5,-1.802 -2.083,-2.219 -1.555,-2.747 -0.401,-2.64 0.126,-2.106 0.662,-1.574 0.533,-0.532 0,0"
             inkscape:connector-curvature="0" /></g><g
           transform="translate(524.707,264.7997)"
           id="g76"><path
             id="path78"
             style="fill:#0a5490;fill-opacity:1;fill-rule:nonzero;stroke:none"
             d="m 0,0 v 55.663 c 0,0.503 0.431,0.935 0.937,0.935 h 4.612 c 0.5,0 0.934,-0.432 0.934,-0.935 L 6.483,0 c 0,-0.507 -0.434,-0.939 -0.934,-0.939 H 0.937 C 0.431,-0.939 0,-0.507 0,0"
             inkscape:connector-curvature="0" /></g><g
           transform="translate(564.3418,266.2391)"
           id="g80"><path
             id="path82"
             style="fill:#0a5490;fill-opacity:1;fill-rule:nonzero;stroke:none"
             d="m 0,0 h -0.719 c -0.647,0 -1.081,-0.145 -2.159,-0.576 -3.461,-1.37 -5.336,-1.803 -8.216,-1.803 -7.851,0 -12.68,4.61 -12.68,12.249 v 23.415 c 0,0.509 0.43,0.94 0.935,0.94 h 4.611 c 0.506,0 0.94,-0.431 0.94,-0.94 V 10.876 c 0,-5.689 2.736,-8.499 8.357,-8.499 5.257,0 8.212,1.728 8.212,4.757 v 26.151 c 0,0.509 0.433,0.94 0.936,0.94 h 4.615 c 0.502,0 0.934,-0.431 0.934,-0.94 V -0.867 c 0,-0.503 -0.432,-0.935 -0.934,-0.935 H 1.299 C 0.217,-1.802 0,-1.587 0,-0.647 Z"
             inkscape:connector-curvature="0" /></g><g
           transform="translate(503.2314,318.4286)"
           id="g84"><path
             id="path86"
             style="fill:#0a5490;fill-opacity:1;fill-rule:nonzero;stroke:none"
             d="m 0,0 c 1.921,2.281 5.007,3.52 9.499,3.52 0.757,0 1.552,-0.027 2.385,-0.077 0.832,-0.05 1.855,-0.273 1.855,-0.273 0.457,-0.099 0.783,-0.56 0.726,-1.024 l -0.546,-4.368 c -0.059,-0.464 -0.469,-0.723 -0.913,-0.575 0,0 -0.48,0.159 -1.085,0.261 -0.606,0.1 -1.262,0.151 -1.968,0.151 -1.262,0 -2.27,-0.189 -3.027,-0.567 C 6.169,-3.331 5.575,-3.874 5.146,-4.58 4.718,-5.287 4.439,-6.132 4.314,-7.115 4.187,-8.1 4.146,-9.634 4.146,-9.634 c -0.011,-0.467 -0.021,-1.232 -0.021,-1.7 v -6.55 c 0,-0.468 0.382,-0.85 0.85,-0.85 h 6.398 c 0.468,0 0.851,-0.382 0.851,-0.85 v -4.204 c 0,-0.468 -0.383,-0.851 -0.851,-0.851 H 4.898 c -0.467,0 -0.849,-0.382 -0.849,-0.849 v -28.274 c 0,-0.467 -0.383,-0.85 -0.851,-0.85 h -5.112 c -0.468,0 -0.85,0.383 -0.85,0.85 v 28.274 c 0,0.467 -0.382,0.849 -0.85,0.849 h -6.02 c -0.468,0 -0.849,0.383 -0.849,0.851 v 4.204 c 0,0.468 0.381,0.85 0.849,0.85 h 6.02 c 0.468,0 0.85,0.382 0.85,0.85 v 6.323 c 0,0.468 0.093,1.228 0.093,1.696 0,2.206 0.508,7.298 2.671,9.865"
             inkscape:connector-curvature="0" /></g></g></g></g></svg>